<svg xmlns="http://www.w3.org/2000/svg" version="1.1" xmlns:xlink="http://www.w3.org/1999/xlink" xmlns:svgjs="http://svgjs.dev/svgjs" width="1500" height="1500" viewBox="0 0 1500 1500"><rect width="1500" height="1500" fill="#000000"></rect><g transform="matrix(0.6666666666666666,0,0,0.6666666666666666,249.39393939393938,435.99032258064517)"><svg viewBox="0 0 396 248" data-background-color="#77d4fc" preserveAspectRatio="xMidYMid meet" height="939" width="1500" xmlns="http://www.w3.org/2000/svg" xmlns:xlink="http://www.w3.org/1999/xlink"><g id="tight-bounds" transform="matrix(1,0,0,1,0.2400000000000091,0.4000000000000057)"><svg viewBox="0 0 395.52 247.2" height="247.2" width="395.52"><g><svg></svg></g><g><svg viewBox="0 0 395.52 247.2" height="247.2" width="395.52"><g transform="matrix(1,0,0,1,75.54432,72.35141438366466)"><svg viewBox="0 0 244.43135999999998 102.49717123267068" height="102.49717123267068" width="244.43135999999998"><g><svg viewBox="0 0 244.43135999999998 102.49717123267068" height="102.49717123267068" width="244.43135999999998"><g><svg viewBox="0 0 244.43135999999998 102.49717123267068" height="102.49717123267068" width="244.43135999999998"><g><svg viewBox="0 0 244.43135999999998 102.49717123267068" height="102.49717123267068" width="244.43135999999998"><g id="textblocktransform"><svg viewBox="0 0 244.43135999999998 102.49717123267068" height="102.49717123267068" width="244.43135999999998" id="textblock"><g><svg viewBox="0 0 244.43135999999998 70.69303101604278" height="70.69303101604278" width="244.43135999999998"><g transform="matrix(1,0,0,1,0,0)"><svg width="244.43135999999998" viewBox="2.9 -37.1 169.94 49.151961786097004" height="70.69303101604278" data-palette-color="#000000"><path d="M8.6 0Q7.05 0 5.25 0.25 3.45 0.5 2.9 0.6L2.9 0.6 3.2-1.7Q5.5-2.15 6.3-3.03 7.1-3.9 7.1-6L7.1-6 7.15-27Q7.15-28.6 6.78-29.15 6.4-29.7 5.3-29.7L5.3-29.7Q4.8-29.7 4.3-29.65 3.8-29.6 3.6-29.6L3.6-29.6 3.5-29.8 3.85-32Q4.45-31.95 6.1-31.9 7.75-31.85 9.4-31.85L9.4-31.85Q11.1-31.85 12.88-31.93 14.65-32 15.3-32.05L15.3-32.05Q20.05-32.05 22.6-30.08 25.15-28.1 25.15-24.45L25.15-24.45Q25.15-21.95 23.63-19.95 22.1-17.95 19.35-16.75L19.35-16.75Q23-15.95 25.05-13.95 27.1-11.95 27.1-9.15L27.1-9.15Q27.1-6.6 25.48-4.38 23.85-2.15 21.15-0.83 18.45 0.5 15.35 0.5L15.35 0.5Q14 0.5 12.25 0.25L12.25 0.25Q9.4 0 8.6 0L8.6 0ZM10.95-17.55Q11.7-17.5 13.48-17.35 15.25-17.2 16.4-17.15L16.4-17.15Q16.4-17 17.7-17.68 19-18.35 20.05-19.78 21.1-21.2 21.1-23.6L21.1-23.6Q21.1-26.8 18.95-28.35 16.8-29.9 12.3-29.9L12.3-29.9Q11.8-29.9 11.63-29.68 11.45-29.45 11.4-28.75L11.4-28.75Q11.1-23.95 10.95-17.55L10.95-17.55ZM10.85-14.9L10.65-5.55Q10.65-3.65 11.95-2.85 13.25-2.05 16.35-2.05L16.35-2.05Q19.35-2.05 21.08-3.73 22.8-5.4 22.8-8.25L22.8-8.25Q22.8-10.95 21.1-12.68 19.4-14.4 16.05-15L16.05-15 10.85-14.9ZM40.85 0.6Q38 0.6 35.8-0.8 33.6-2.2 32.37-4.73 31.15-7.25 31.15-10.5L31.15-10.5Q31.15-14 32.67-16.93 34.2-19.85 36.85-21.53 39.5-23.2 42.75-23.2L42.75-23.2Q45.55-23.2 47.77-21.8 50-20.4 51.22-17.88 52.45-15.35 52.45-12.1L52.45-12.1Q52.45-8.6 50.92-5.68 49.4-2.75 46.75-1.07 44.1 0.6 40.85 0.6L40.85 0.6ZM42.25-1.85Q45.05-1.85 46.7-4.13 48.35-6.4 48.35-10.3L48.35-10.3Q48.35-13.25 47.45-15.58 46.55-17.9 44.92-19.2 43.3-20.5 41.25-20.5L41.25-20.5Q38.45-20.5 36.8-18.2 35.15-15.9 35.15-11.95L35.15-11.95Q35.15-9 36.05-6.7 36.95-4.4 38.55-3.13 40.15-1.85 42.25-1.85L42.25-1.85ZM55.6 0.6L55.8-1.45Q57.2-1.85 57.77-2.45 58.35-3.05 58.47-3.9 58.6-4.75 58.6-6.75L58.6-6.75 58.6-31.3Q58.6-32.85 58.25-33.4 57.9-33.95 56.8-33.95L56.8-33.95Q56.55-33.95 55.65-33.85L55.65-33.85 55.5-33.95 55.7-35.65Q59.9-36.25 63.1-37.1L63.1-37.1 63.4-36.45Q62.85-35.6 62.42-25.75 62-15.9 62-4.9L62-4.9Q62-3.4 62.4-2.75 62.8-2.1 63.75-2.1L63.75-2.1 65.5-2.2 65.59-2 65.2 0.15Q61.9 0 60.75 0L60.75 0Q59.05 0 55.6 0.6L55.6 0.6ZM88.94 0.6Q85.04 0.6 84.49-2.95L84.49-2.95 84.14-3.1Q78.94 0.45 77.89 0.45L77.89 0.45Q75.04 0.45 72.84-0.88 70.64-2.2 69.44-4.6 68.24-7 68.24-10.1L68.24-10.1Q68.24-13.65 69.92-16.65 71.59-19.65 74.47-21.43 77.34-23.2 80.69-23.2L80.69-23.2Q82.29-23.2 84.14-23L84.14-23 84.14-31.3Q84.14-34 82.29-34L82.29-34Q81.94-34 81.54-33.93 81.14-33.85 81.04-33.8L81.04-33.8 81.24-35.65Q83.39-35.95 85.69-36.45 87.99-36.95 88.64-37.1L88.64-37.1 88.94-36.45Q88.39-35.6 87.97-25.9 87.54-16.2 87.54-5.25L87.54-5.25Q87.54-4.15 88.09-3.55 88.64-2.95 89.59-2.95L89.59-2.95Q90.29-2.95 90.97-3.23 91.64-3.5 92.07-3.8 92.49-4.1 92.59-4.2L92.59-4.2 93.29-3.4Q93.14-3.15 92.54-2.33 91.94-1.5 90.97-0.6 89.99 0.3 88.94 0.6L88.94 0.6ZM78.69-2.8Q79.74-2.8 80.97-3.4 82.19-4 83.04-4.63 83.89-5.25 84.14-5.45L84.14-5.45 84.14-19.15Q83.99-19.25 83.39-19.53 82.79-19.8 81.72-20.05 80.64-20.3 79.29-20.3L79.29-20.3Q75.94-20.3 74.02-18.03 72.09-15.75 72.09-11.8L72.09-11.8Q72.09-9.3 72.97-7.25 73.84-5.2 75.37-4 76.89-2.8 78.69-2.8L78.69-2.8ZM101.89 0Q100.34 0 98.54 0.25 96.74 0.5 96.19 0.6L96.19 0.6 96.49-1.7Q98.79-2.15 99.59-3.03 100.39-3.9 100.39-6L100.39-6 100.44-27Q100.44-28.6 100.07-29.15 99.69-29.7 98.59-29.7L98.59-29.7Q98.09-29.7 97.59-29.65 97.09-29.6 96.89-29.6L96.89-29.6 96.79-29.8 97.14-32Q97.74-31.95 99.39-31.9 101.04-31.85 102.69-31.85L102.69-31.85Q104.39-31.85 106.17-31.93 107.94-32 108.59-32.05L108.59-32.05Q113.34-32.05 115.89-30.08 118.44-28.1 118.44-24.45L118.44-24.45Q118.44-21.95 116.92-19.95 115.39-17.95 112.64-16.75L112.64-16.75Q116.29-15.95 118.34-13.95 120.39-11.95 120.39-9.15L120.39-9.15Q120.39-6.6 118.77-4.38 117.14-2.15 114.44-0.83 111.74 0.5 108.64 0.5L108.64 0.5Q107.29 0.5 105.54 0.25L105.54 0.25Q102.69 0 101.89 0L101.89 0ZM104.24-17.55Q104.99-17.5 106.77-17.35 108.54-17.2 109.69-17.15L109.69-17.15Q109.69-17 110.99-17.68 112.29-18.35 113.34-19.78 114.39-21.2 114.39-23.6L114.39-23.6Q114.39-26.8 112.24-28.35 110.09-29.9 105.59-29.9L105.59-29.9Q105.09-29.9 104.92-29.68 104.74-29.45 104.69-28.75L104.69-28.75Q104.39-23.95 104.24-17.55L104.24-17.55ZM104.14-14.9L103.94-5.55Q103.94-3.65 105.24-2.85 106.54-2.05 109.64-2.05L109.64-2.05Q112.64-2.05 114.37-3.73 116.09-5.4 116.09-8.25L116.09-8.25Q116.09-10.95 114.39-12.68 112.69-14.4 109.34-15L109.34-15 104.14-14.9ZM127.64-17.35Q127.64-20.05 125.79-20.05L125.79-20.05Q125.44-20.05 125.04-19.98 124.64-19.9 124.54-19.85L124.54-19.85 124.74-21.7Q126.69-22 128.94-22.53 131.19-23.05 131.89-23.2L131.89-23.2 132.19-22.6Q131.69-21.3 131.29-16.7 130.89-12.1 130.89-7.75L130.89-7.75Q130.89-2.85 134.89-2.85L134.89-2.85Q136.39-2.85 137.69-3.58 138.99-4.3 140.94-5.7L140.94-5.7 140.94-17.3Q140.94-18.8 140.39-19.4 139.84-20 138.44-20L138.44-20 137.24-19.95 137.44-21.75Q139.64-22.05 142.04-22.55 144.44-23.05 145.14-23.2L145.14-23.2 145.44-22.6Q144.99-21.45 144.66-16.35 144.34-11.25 144.34-5.25L144.34-5.25Q144.34-4.15 144.89-3.55 145.44-2.95 146.39-2.95L146.39-2.95Q147.09-2.95 147.76-3.23 148.44-3.5 148.86-3.8 149.29-4.1 149.39-4.2L149.39-4.2 150.09-3.4Q149.89-3.1 149.16-2.15 148.44-1.2 147.46-0.3 146.49 0.6 145.74 0.6L145.74 0.6Q141.69 0.6 141.29-3.45L141.29-3.45 141.04-3.55Q138.64-1.7 136.71-0.55 134.79 0.6 134.09 0.6L134.09 0.6Q130.89 0.6 129.16-0.9 127.44-2.4 127.44-5.2L127.44-5.2 127.64-17.35ZM151.99 12.05Q151.59 12.05 150.69 10.88 149.79 9.7 149.79 9.2L149.79 9.2 150.04 8.85Q152.84 8.85 155.26 6.53 157.69 4.2 159.44 0L159.44 0Q155.59-12.2 153.24-18.4L153.24-18.4Q152.79-19.65 151.96-20.2 151.14-20.75 149.84-20.8L149.84-20.8 149.74-21 150.04-22.65 154.19-22.6Q156.04-22.6 157.86-22.75 159.69-22.9 160.19-22.95L160.19-22.95 160.29-22.7 159.99-21.15Q158.29-21.1 157.71-20.83 157.14-20.55 157.14-19.85L157.14-19.85Q157.14-19.05 158.11-15.7 159.09-12.35 160.14-9.03 161.19-5.7 161.54-4.7L161.54-4.7 161.74-4.7Q167.49-18.45 167.49-19.65L167.49-19.65Q167.49-20.95 165.59-20.95L165.59-20.95 163.29-20.95 163.19-21.15 163.49-22.8Q163.94-22.75 165.49-22.68 167.04-22.6 168.59-22.6L168.59-22.6 172.84-22.65 172.49-20.8Q171.39-20.6 170.81-20.03 170.24-19.45 169.69-17.95L169.69-17.95 163.34-2.75Q160.74 3.55 159.09 6.6 157.44 9.65 155.84 10.88 154.24 12.1 151.99 12.05L151.99 12.05Z" opacity="1" transform="matrix(1,0,0,1,0,0)" fill="#ffffff" class="wordmark-text-0" data-fill-palette-color="primary" id="text-0"></path></svg></g></svg></g><g transform="matrix(1,0,0,1,0,87.3819590061861)"><svg viewBox="0 0 244.43135999999998 15.11521222648458" height="15.11521222648458" width="244.43135999999998"><g transform="matrix(1,0,0,1,0,0)"><svg width="244.43135999999998" viewBox="2.85 -32.45 651.63 40.300000000000004" height="15.11521222648458" data-palette-color="#000000"><path d="M10.95 0.6Q8.85 0.6 7.1 0.23 5.35-0.15 4.23-0.6 3.1-1.05 3.1-1.1L3.1-1.1 2.85-1.6Q2.9-1.9 3.05-3.1 3.2-4.3 3.33-6.23 3.45-8.15 3.45-10.3L3.45-10.3 5.7-10.55Q5.7-6.8 6.2-5 6.7-3.2 8.05-2.53 9.4-1.85 12.2-1.85L12.2-1.85Q15.35-1.85 17.25-3.33 19.15-4.8 19.15-7.35L19.15-7.35Q19.15-8.85 18.13-10.05 17.1-11.25 15.7-12.1 14.3-12.95 11.55-14.4L11.55-14.4Q8.95-15.75 7.3-16.88 5.65-18 4.53-19.55 3.4-21.1 3.4-23.15L3.4-23.15Q3.4-25.75 4.93-27.88 6.45-30 9.08-31.23 11.7-32.45 14.9-32.45L14.9-32.45Q16.9-32.45 18.6-32.18 20.3-31.9 21.3-31.6 22.3-31.3 22.55-31.2L22.55-31.2 22.7-30.9Q22.65-30.6 22.45-29.5 22.25-28.4 22-26.45 21.75-24.5 21.6-22.45L21.6-22.45 19.65-22.25 19.35-22.5Q19.4-22.7 19.45-23.43 19.5-24.15 19.5-25.1L19.5-25.1Q19.5-27.75 18.2-28.75 16.9-29.75 13.55-29.75L13.55-29.75Q10.8-29.75 9.03-28.38 7.25-27 7.25-24.95L7.25-24.95Q7.25-22.95 8.97-21.48 10.7-20 14.05-18.25L14.05-18.25Q17.3-16.6 19-15.53 20.7-14.45 22-12.85 23.3-11.25 23.3-9.15L23.3-9.15Q23.3-6.35 21.73-4.13 20.15-1.9 17.35-0.65 14.55 0.6 10.95 0.6L10.95 0.6ZM29.2 0.45L29.45-1.6Q31.3-1.95 31.95-2.63 32.6-3.3 32.6-4.95L32.6-4.95 32.65-20.85Q32.65-22.1 32.35-22.53 32.05-22.95 31.15-22.95L31.15-22.95 29.8-22.9 29.65-23.1 29.95-25Q30.45-25 31.82-24.95 33.2-24.9 34.6-24.9L34.6-24.9Q35.75-24.9 37.35-25.05 38.95-25.2 39.45-25.25L39.45-25.25 39.25-23.2Q38.05-23 37.55-22.73 37.05-22.45 36.87-21.88 36.7-21.3 36.6-19.9L36.6-19.9 36.35-13.85 42.85-13.8Q45.5-13.8 48.6-14.15L48.6-14.15 48.65-20.85Q48.65-22.1 48.35-22.53 48.05-22.95 47.15-22.95L47.15-22.95 45.75-22.9 45.65-23.1 45.95-25Q46.4-24.95 47.7-24.93 49-24.9 50.25-24.9L50.25-24.9Q51.45-24.9 53.17-25.05 54.9-25.2 55.45-25.25L55.45-25.25 55.3-23.2Q53.75-23 53.25-22.58 52.75-22.15 52.7-21L52.7-21Q52.5-17.05 52.32-12.18 52.15-7.3 52.15-4.65L52.15-4.65Q52.15-3.05 52.5-2.53 52.85-2 53.9-2L53.9-2Q54.5-2 55-2.05 55.5-2.1 55.65-2.1L55.65-2.1 55.8-1.9 55.4 0.1Q54.85 0.1 53.32 0.05 51.8 0 50.15 0L50.15 0 45.15 0.05 45.55-1.95Q46.85-1.95 47.47-2.27 48.1-2.6 48.35-3.43 48.6-4.25 48.6-5.9L48.6-5.9 48.6-11.5 42.85-11.55Q42.05-11.55 39.6-11.38 37.15-11.2 36.3-11.15L36.3-11.15 36.15-4.65Q36.15-3.05 36.5-2.5 36.85-1.95 37.9-1.95L37.9-1.95Q38.5-1.95 39-2 39.5-2.05 39.65-2.1L39.65-2.1 39.75-1.9 39.4 0.1Q39 0.1 37.87 0.05 36.75 0 35.5 0L35.5 0Q33.65 0 31.45 0.15 29.25 0.3 29.2 0.45L29.2 0.45ZM72 0.45Q68.6 0.45 65.97-1.05 63.35-2.55 61.92-5.3 60.5-8.05 60.5-11.65L60.5-11.65Q60.5-15.55 62.27-18.68 64.05-21.8 67.12-23.58 70.2-25.35 74-25.35L74-25.35Q77.45-25.35 80.1-23.85 82.75-22.35 84.2-19.63 85.65-16.9 85.65-13.3L85.65-13.3Q85.65-9.4 83.87-6.28 82.1-3.15 78.97-1.35 75.85 0.45 72 0.45L72 0.45ZM73.2-1.95Q76.85-1.95 79.1-4.58 81.35-7.2 81.35-11.55L81.35-11.55Q81.35-14.85 80.27-17.35 79.2-19.85 77.22-21.2 75.25-22.55 72.65-22.55L72.65-22.55Q69.1-22.55 66.92-19.95 64.75-17.35 64.75-13L64.75-13Q64.75-9.7 65.8-7.2 66.85-4.7 68.77-3.33 70.7-1.95 73.2-1.95L73.2-1.95ZM90.59 0.3L90.89-1.75Q92.64-2.05 93.22-2.68 93.79-3.3 93.79-4.95L93.79-4.95 93.84-20.85Q93.84-22.1 93.54-22.53 93.24-22.95 92.39-22.95L92.39-22.95 90.99-22.9 90.84-23.1 91.14-25Q91.39-25 92.62-24.95 93.84-24.9 95.84-24.9L95.84-24.9Q97.19-24.9 98.89-24.98 100.59-25.05 101.29-25.05L101.29-25.05Q105.79-25.05 108.07-23.15 110.34-21.25 110.34-17.95L110.34-17.95Q110.34-15.75 108.99-13.75 107.64-11.75 105.47-10.53 103.29-9.3 100.84-9.3L100.84-9.3 97.39-9.3 97.34-5.8Q97.34-4.05 97.47-3.28 97.59-2.5 97.94-2.25 98.29-2 99.14-2L99.14-2Q99.79-2 100.44-2.05 101.09-2.1 101.29-2.1L101.29-2.1 101.39-1.9 100.99 0.1Q100.54 0.1 99.34 0.05 98.14 0 96.89 0L96.89 0Q95.24 0 92.94 0.1 90.64 0.2 90.59 0.3L90.59 0.3ZM101.64-11.45Q106.29-12.2 106.29-17.25L106.29-17.25Q106.29-20.05 104.54-21.38 102.79-22.7 98.99-22.7L98.99-22.7Q98.29-22.7 98.14-22.63 97.99-22.55 97.94-22.1L97.94-22.1Q97.54-15.75 97.49-12L97.49-12 101.64-11.45ZM124.44 0.6L124.74-1.7Q127.04-2.15 127.84-3.03 128.64-3.9 128.64-6L128.64-6 128.69-27Q128.69-28.6 128.31-29.15 127.94-29.7 126.84-29.7L126.84-29.7Q126.34-29.7 125.84-29.65 125.34-29.6 125.14-29.6L125.14-29.6 125.04-29.8 125.39-32Q126.04-31.95 128.01-31.9 129.99-31.85 132.34-31.85L132.34-31.85Q142.19-31.85 146.39-32.45L146.39-32.45 146.54-32.15Q146.49-31.85 146.26-30.75 146.04-29.65 145.79-27.7 145.54-25.75 145.39-23.7L145.39-23.7 142.99-23.5Q142.99-23.75 143.04-24.45 143.09-25.15 143.09-25.8L143.09-25.8Q143.09-27.55 142.66-28.23 142.24-28.9 140.94-29.13 139.64-29.35 136.39-29.35L136.39-29.35Q134.64-29.35 133.99-29.25 133.34-29.15 133.14-28.78 132.94-28.4 132.89-27.4L132.89-27.4 132.49-16.85 137.64-16.8Q138.59-16.8 140.44-17.03 142.29-17.25 142.89-17.35L142.89-17.35 143.09-17.1 142.39-14.1Q141.74-14.15 139.96-14.2 138.19-14.25 136.24-14.25L136.24-14.25Q134.39-14.25 132.39-13.9L132.39-13.9 132.19-5.6Q132.19-3.55 132.64-2.88 133.09-2.2 134.39-2.2L134.39-2.2Q135.39-2.2 136.46-2.27 137.54-2.35 137.94-2.35L137.94-2.35 138.04-2.15 137.59 0.2Q136.79 0.15 134.61 0.08 132.44 0 130.14 0L130.14 0Q128.59 0 126.79 0.25 124.99 0.5 124.44 0.6L124.44 0.6ZM149.84 0.4L150.09-1.7Q151.94-1.9 152.59-2.6 153.24-3.3 153.24-5L153.24-5 153.29-20.85Q153.29-22.1 152.99-22.53 152.69-22.95 151.79-22.95L151.79-22.95 150.44-22.9 150.34-23.1 150.64-25Q151.24-25 152.99-24.95 154.74-24.9 156.79-24.9L156.79-24.9Q165.14-24.9 169.14-25.35L169.14-25.35 169.29-25.1Q169.19-24.55 168.84-22.6 168.49-20.65 168.34-18.4L168.34-18.4 165.94-18.2Q165.94-18.4 165.99-18.88 166.04-19.35 166.04-19.85L166.04-19.85Q166.04-21.15 165.66-21.68 165.29-22.2 164.11-22.38 162.94-22.55 160.04-22.55L160.04-22.55Q158.69-22.55 158.19-22.48 157.69-22.4 157.54-22.13 157.39-21.85 157.34-21.1L157.34-21.1 157.04-14 161.14-13.95Q162.04-13.95 163.79-14.13 165.54-14.3 166.09-14.35L166.09-14.35 166.29-14.1 165.69-11.5Q165.14-11.5 163.51-11.55 161.89-11.6 160.09-11.6L160.09-11.6Q158.69-11.6 156.94-11.35L156.94-11.35Q156.79-7.55 156.79-4.5L156.79-4.5Q156.79-3.35 156.96-2.9 157.14-2.45 157.76-2.3 158.39-2.15 159.84-2.15L159.84-2.15Q163.09-2.15 164.49-2.45 165.89-2.75 166.46-3.68 167.04-4.6 167.39-6.85L167.39-6.85 169.59-7.05 169.79-6.8Q169.64-6.25 169.26-4.23 168.89-2.2 168.69 0L168.69 0 168.39 0.25Q167.04 0.2 162.79 0.1 158.54 0 155.89 0L155.89 0Q153.84 0 152.09 0.18 150.34 0.35 149.84 0.4L149.84 0.4ZM186.73 0.35L186.58 0.1 186.73-1.7Q188.83-1.85 189.56-2.15 190.28-2.45 190.28-3.15L190.28-3.15Q190.28-3.95 189.93-4.85L189.93-4.85 188.73-8.7Q187.73-8.75 184.58-8.75L184.58-8.75Q183.13-8.75 180.28-8.45L180.28-8.45 178.88-4.75Q178.53-3.6 178.53-3.35L178.53-3.35Q178.53-2.55 179.08-2.2 179.63-1.85 180.88-1.85L180.88-1.85 183.03-1.85 183.18-1.65 182.88 0.25Q182.38 0.2 180.61 0.1 178.83 0 177.13 0L177.13 0Q175.53 0 174.26 0.05 172.98 0.1 172.53 0.1L172.53 0.1 172.83-1.95Q173.93-2.1 174.58-2.73 175.23-3.35 175.88-4.85L175.88-4.85 183.73-24.7 187.28-25.35 187.63-25.3Q187.63-25.1 189.91-17.4 192.18-9.7 193.98-4.65L193.98-4.65Q194.48-3.2 195.26-2.63 196.03-2.05 197.73-1.9L197.73-1.9 197.83-1.7 197.58 0.1Q197.08 0.1 195.73 0.05 194.38 0 193.03 0L193.03 0Q190.98 0 189.13 0.15 187.28 0.3 186.73 0.35L186.73 0.35ZM181.08-10.8L184.48-10.8Q186.23-10.8 188.13-11L188.13-11 185.08-20.7 184.73-20.7 181.08-10.8ZM219.58 0.6Q218.48 0.6 217.33-0.38 216.18-1.35 215.23-3.05L215.23-3.05 211.03-10.4 207.78-10.4 207.68-5.05Q207.68-3.6 207.88-2.98 208.08-2.35 208.66-2.15 209.23-1.95 210.63-1.9L210.63-1.9 210.73-1.75 210.33 0.15Q209.73 0.1 208.16 0.08 206.58 0.05 204.98 0.05L204.98 0.05Q203.43 0.05 202.28 0.1 201.13 0.15 200.73 0.2L200.73 0.2 201.08-1.85Q202.93-2.1 203.53-2.7 204.13-3.3 204.13-4.95L204.13-4.95 204.18-20.9Q204.18-22.1 203.88-22.53 203.58-22.95 202.73-22.95L202.73-22.95 201.33-22.9 201.18-23.1 201.48-25Q201.98-25 203.38-24.95 204.78-24.9 206.18-24.9L206.18-24.9Q207.63-24.9 209.28-24.98 210.93-25.05 211.53-25.05L211.53-25.05Q215.58-25.05 217.88-23.38 220.18-21.7 220.18-18.75L220.18-18.75Q220.18-16.45 218.63-14.5 217.08-12.55 214.28-11.3L214.28-11.3 218.53-4.9Q219.73-3.1 220.83-2.35 221.93-1.6 223.48-1.6L223.48-1.6 223.68-1.35 223.43 0.2 219.58 0.6ZM211.93-12.6Q212.88-13 213.61-13.38 214.33-13.75 215.23-14.95 216.13-16.15 216.13-18.05L216.13-18.05Q216.13-22.9 208.98-22.9L208.98-22.9Q208.58-22.9 208.43-22.73 208.28-22.55 208.28-22L208.28-22Q207.88-15.9 207.88-13L207.88-13 211.93-12.6ZM227.53 0.4L227.83-1.7Q229.43-1.95 230-2.63 230.58-3.3 230.58-5L230.58-5 230.63-20.85Q230.63-22.1 230.33-22.53 230.03-22.95 229.13-22.95L229.13-22.95 227.78-22.9 227.63-23.1 227.93-25Q228.18-25 229.43-24.95 230.68-24.9 232.78-24.9L232.78-24.9Q233.88-24.9 235.5-25.05 237.13-25.2 237.63-25.25L237.63-25.25 237.43-23.15Q236.08-23 235.53-22.68 234.98-22.35 234.88-21.85 234.78-21.35 234.63-19.8L234.63-19.8Q234.13-13.1 234.13-4.95L234.13-4.95Q234.13-3.7 234.35-3.13 234.58-2.55 235.25-2.35 235.93-2.15 237.38-2.15L237.38-2.15Q239.78-2.15 240.9-2.55 242.03-2.95 242.6-4.13 243.18-5.3 243.63-7.85L243.63-7.85 245.83-8.1 245.98-7.8Q245.88-7.15 245.5-4.83 245.13-2.5 244.83 0.05L244.83 0.05 244.58 0.35Q243.43 0.3 239.7 0.15 235.98 0 233.43 0L233.43 0Q231.43 0 229.7 0.18 227.98 0.35 227.53 0.4L227.53 0.4ZM248.28 0.4L248.53-1.7Q250.38-1.9 251.03-2.6 251.68-3.3 251.68-5L251.68-5 251.73-20.85Q251.73-22.1 251.43-22.53 251.13-22.95 250.23-22.95L250.23-22.95 248.88-22.9 248.78-23.1 249.08-25Q249.68-25 251.43-24.95 253.18-24.9 255.23-24.9L255.23-24.9Q263.58-24.9 267.58-25.35L267.58-25.35 267.73-25.1Q267.63-24.55 267.28-22.6 266.93-20.65 266.78-18.4L266.78-18.4 264.38-18.2Q264.38-18.4 264.43-18.88 264.48-19.35 264.48-19.85L264.48-19.85Q264.48-21.15 264.1-21.68 263.73-22.2 262.55-22.38 261.38-22.55 258.48-22.55L258.48-22.55Q257.13-22.55 256.63-22.48 256.13-22.4 255.98-22.13 255.83-21.85 255.78-21.1L255.78-21.1 255.48-14 259.58-13.95Q260.48-13.95 262.23-14.13 263.98-14.3 264.53-14.35L264.53-14.35 264.73-14.1 264.13-11.5Q263.58-11.5 261.95-11.55 260.33-11.6 258.53-11.6L258.53-11.6Q257.13-11.6 255.38-11.35L255.38-11.35Q255.23-7.55 255.23-4.5L255.23-4.5Q255.23-3.35 255.4-2.9 255.58-2.45 256.2-2.3 256.83-2.15 258.28-2.15L258.28-2.15Q261.53-2.15 262.93-2.45 264.33-2.75 264.9-3.68 265.48-4.6 265.83-6.85L265.83-6.85 268.03-7.05 268.23-6.8Q268.08-6.25 267.7-4.23 267.33-2.2 267.13 0L267.13 0 266.83 0.25Q265.48 0.2 261.23 0.1 256.98 0 254.33 0L254.33 0Q252.28 0 250.53 0.18 248.78 0.35 248.28 0.4L248.28 0.4ZM280.52 0.45Q278.77 0.45 277.3 0.15 275.82-0.15 274.95-0.48 274.07-0.8 273.87-0.9L273.87-0.9 273.62-1.35Q273.67-1.6 273.8-2.48 273.92-3.35 274.05-4.93 274.17-6.5 274.17-8.1L274.17-8.1 276.42-8.3Q276.42-5.6 276.85-4.28 277.27-2.95 278.32-2.45 279.37-1.95 281.52-1.95L281.52-1.95Q283.92-1.95 285.4-3 286.87-4.05 286.87-5.8L286.87-5.8Q286.87-6.95 286.05-7.83 285.22-8.7 284.15-9.3 283.07-9.9 280.72-11.05L280.72-11.05Q277.52-12.6 275.8-14.1 274.07-15.6 274.07-17.95L274.07-17.95Q274.07-20.05 275.35-21.75 276.62-23.45 278.87-24.4 281.12-25.35 283.87-25.35L283.87-25.35Q285.52-25.35 286.97-25.15 288.42-24.95 289.27-24.73 290.12-24.5 290.32-24.4L290.32-24.4 290.52-24.05Q290.42-23.5 290.07-21.58 289.72-19.65 289.57-17.45L289.57-17.45 287.62-17.25 287.32-17.45Q287.32-17.6 287.37-18.07 287.42-18.55 287.42-19.25L287.42-19.25Q287.42-21.2 286.4-21.98 285.37-22.75 282.77-22.75L282.77-22.75Q280.67-22.75 279.3-21.78 277.92-20.8 277.92-19.3L277.92-19.3Q277.92-17.8 279.3-16.75 280.67-15.7 283.47-14.35L283.47-14.35Q285.92-13.2 287.4-12.35 288.87-11.5 289.92-10.2 290.97-8.9 290.97-7.2L290.97-7.2Q290.97-4.95 289.65-3.23 288.32-1.5 285.95-0.53 283.57 0.45 280.52 0.45L280.52 0.45ZM303.47 0.45Q301.72 0.45 300.25 0.15 298.77-0.15 297.9-0.48 297.02-0.8 296.82-0.9L296.82-0.9 296.57-1.35Q296.62-1.6 296.75-2.48 296.87-3.35 297-4.93 297.12-6.5 297.12-8.1L297.12-8.1 299.37-8.3Q299.37-5.6 299.8-4.28 300.22-2.95 301.27-2.45 302.32-1.95 304.47-1.95L304.47-1.95Q306.87-1.95 308.35-3 309.82-4.05 309.82-5.8L309.82-5.8Q309.82-6.95 309-7.83 308.17-8.7 307.1-9.3 306.02-9.9 303.67-11.05L303.67-11.05Q300.47-12.6 298.75-14.1 297.02-15.6 297.02-17.95L297.02-17.95Q297.02-20.05 298.3-21.75 299.57-23.45 301.82-24.4 304.07-25.35 306.82-25.35L306.82-25.35Q308.47-25.35 309.92-25.15 311.37-24.95 312.22-24.73 313.07-24.5 313.27-24.4L313.27-24.4 313.47-24.05Q313.37-23.5 313.02-21.58 312.67-19.65 312.52-17.45L312.52-17.45 310.57-17.25 310.27-17.45Q310.27-17.6 310.32-18.07 310.37-18.55 310.37-19.25L310.37-19.25Q310.37-21.2 309.35-21.98 308.32-22.75 305.72-22.75L305.72-22.75Q303.62-22.75 302.25-21.78 300.87-20.8 300.87-19.3L300.87-19.3Q300.87-17.8 302.25-16.75 303.62-15.7 306.42-14.35L306.42-14.35Q308.87-13.2 310.35-12.35 311.82-11.5 312.87-10.2 313.92-8.9 313.92-7.2L313.92-7.2Q313.92-4.95 312.6-3.23 311.27-1.5 308.9-0.53 306.52 0.45 303.47 0.45L303.47 0.45ZM319.92 0.4L320.22-1.7Q321.82-1.95 322.39-2.63 322.97-3.3 322.97-5L322.97-5 323.02-20.85Q323.02-22.1 322.72-22.53 322.42-22.95 321.52-22.95L321.52-22.95 320.17-22.9 320.02-23.1 320.32-25Q320.57-25 321.82-24.95 323.07-24.9 325.17-24.9L325.17-24.9Q326.27-24.9 327.89-25.05 329.52-25.2 330.02-25.25L330.02-25.25 329.82-23.15Q328.47-23 327.92-22.68 327.37-22.35 327.27-21.85 327.17-21.35 327.02-19.8L327.02-19.8Q326.52-13.1 326.52-4.95L326.52-4.95Q326.52-3.7 326.74-3.13 326.97-2.55 327.64-2.35 328.32-2.15 329.77-2.15L329.77-2.15Q332.17-2.15 333.29-2.55 334.42-2.95 334.99-4.13 335.57-5.3 336.02-7.85L336.02-7.85 338.22-8.1 338.37-7.8Q338.27-7.15 337.89-4.83 337.52-2.5 337.22 0.05L337.22 0.05 336.97 0.35Q335.82 0.3 332.09 0.15 328.37 0 325.82 0L325.82 0Q323.82 0 322.09 0.18 320.37 0.35 319.92 0.4L319.92 0.4ZM343.32 0.45L343.62-1.6Q345.12-1.85 345.82-2.25 346.52-2.65 346.72-3.4 346.92-4.15 346.92-5.65L346.92-5.65 346.92-7.2Q346.92-8.35 346.67-9.25 346.42-10.15 345.72-11.5L345.72-11.5 341.97-18.7Q341.02-20.5 340.52-21.23 340.02-21.95 339.22-22.4 338.42-22.85 336.92-23L336.92-23 336.82-23.2 337.12-25Q337.57-25 338.94-24.95 340.32-24.9 341.82-24.9L341.82-24.9Q343.22-24.9 345.22-25.03 347.22-25.15 347.82-25.2L347.82-25.2 347.97-24.9 347.82-23.25Q346.12-23.15 345.49-22.88 344.87-22.6 344.87-21.9L344.87-21.9Q344.87-21.25 346.64-17.6 348.42-13.95 349.17-12.5L349.17-12.5 349.42-12.5 353.72-20.2Q354.37-21.35 354.37-22.1L354.37-22.1Q354.37-23.05 351.92-23.2L351.92-23.2 351.82-23.35 352.07-25.15Q352.37-25.15 354.07-25.03 355.77-24.9 356.87-24.9L356.87-24.9Q358.17-24.9 359.27-24.95 360.37-25 360.77-25.05L360.77-25.05 360.92-24.75 360.67-23.05Q359.32-22.75 358.57-22.25 357.82-21.75 357.24-20.95 356.67-20.15 355.37-18L355.37-18 351.32-11.1Q350.77-10.05 350.62-8.8 350.47-7.55 350.47-4.3L350.47-4.3Q350.47-3 350.87-2.5 351.27-2 352.32-2L352.32-2Q352.97-2 353.54-2.05 354.12-2.1 354.32-2.1L354.32-2.1 354.42-1.95 354.02 0.15Q353.42 0.1 351.77 0.05 350.12 0 348.42 0L348.42 0Q347.12 0 345.47 0.18 343.82 0.35 343.32 0.45L343.32 0.45ZM360.76 7.85L359.86 7.1 359.86 6.6Q361.61 5.4 362.71 3.75 363.81 2.1 363.81 0.55L363.81 0.55Q363.81-0.45 363.36-1.38 362.91-2.3 362.21-2.95L362.21-2.95 362.31-3.65Q364.01-4.95 365.21-4.95L365.21-4.95Q366.31-4.95 367.04-3.93 367.76-2.9 367.76-1.05L367.76-1.05Q367.76 1.55 365.66 3.88 363.56 6.2 360.76 7.85L360.76 7.85ZM391.26 0.6Q389.16 0.6 387.41 0.23 385.66-0.15 384.53-0.6 383.41-1.05 383.41-1.1L383.41-1.1 383.16-1.6Q383.21-1.9 383.36-3.1 383.51-4.3 383.63-6.23 383.76-8.15 383.76-10.3L383.76-10.3 386.01-10.55Q386.01-6.8 386.51-5 387.01-3.2 388.36-2.53 389.71-1.85 392.51-1.85L392.51-1.85Q395.66-1.85 397.56-3.33 399.46-4.8 399.46-7.35L399.46-7.35Q399.46-8.85 398.43-10.05 397.41-11.25 396.01-12.1 394.61-12.95 391.86-14.4L391.86-14.4Q389.26-15.75 387.61-16.88 385.96-18 384.83-19.55 383.71-21.1 383.71-23.15L383.71-23.15Q383.71-25.75 385.23-27.88 386.76-30 389.38-31.23 392.01-32.45 395.21-32.45L395.21-32.45Q397.21-32.45 398.91-32.18 400.61-31.9 401.61-31.6 402.61-31.3 402.86-31.2L402.86-31.2 403.01-30.9Q402.96-30.6 402.76-29.5 402.56-28.4 402.31-26.45 402.06-24.5 401.91-22.45L401.91-22.45 399.96-22.25 399.66-22.5Q399.71-22.7 399.76-23.43 399.81-24.15 399.81-25.1L399.81-25.1Q399.81-27.75 398.51-28.75 397.21-29.75 393.86-29.75L393.86-29.75Q391.11-29.75 389.33-28.38 387.56-27 387.56-24.95L387.56-24.95Q387.56-22.95 389.28-21.48 391.01-20 394.36-18.25L394.36-18.25Q397.61-16.6 399.31-15.53 401.01-14.45 402.31-12.85 403.61-11.25 403.61-9.15L403.61-9.15Q403.61-6.35 402.03-4.13 400.46-1.9 397.66-0.65 394.86 0.6 391.26 0.6L391.26 0.6ZM421 0.35L420.86 0.1 421-1.7Q423.11-1.85 423.83-2.15 424.56-2.45 424.56-3.15L424.56-3.15Q424.56-3.95 424.2-4.85L424.2-4.85 423-8.7Q422-8.75 418.86-8.75L418.86-8.75Q417.41-8.75 414.56-8.45L414.56-8.45 413.16-4.75Q412.81-3.6 412.81-3.35L412.81-3.35Q412.81-2.55 413.36-2.2 413.91-1.85 415.16-1.85L415.16-1.85 417.31-1.85 417.45-1.65 417.16 0.25Q416.66 0.2 414.88 0.1 413.11 0 411.41 0L411.41 0Q409.81 0 408.53 0.05 407.25 0.1 406.81 0.1L406.81 0.1 407.11-1.95Q408.2-2.1 408.86-2.73 409.5-3.35 410.16-4.85L410.16-4.85 418-24.7 421.56-25.35 421.91-25.3Q421.91-25.1 424.18-17.4 426.45-9.7 428.25-4.65L428.25-4.65Q428.75-3.2 429.53-2.63 430.31-2.05 432-1.9L432-1.9 432.11-1.7 431.86 0.1Q431.36 0.1 430 0.05 428.66 0 427.31 0L427.31 0Q425.25 0 423.41 0.15 421.56 0.3 421 0.35L421 0.35ZM415.36-10.8L418.75-10.8Q420.5-10.8 422.41-11L422.41-11 419.36-20.7 419-20.7 415.36-10.8ZM440.9 0.65Q440.3-1.4 438.18-8.13 436.05-14.85 434.1-20.65L434.1-20.65Q433.75-21.75 432.88-22.3 432-22.85 430.5-22.95L430.5-22.95 430.4-23.1 430.7-25Q431.25-25 432.7-24.95 434.15-24.9 435.55-24.9L435.55-24.9Q437.05-24.9 439.15-25.08 441.25-25.25 441.9-25.3L441.9-25.3 442.05-25 441.9-23.2Q439.7-23.05 439.03-22.75 438.35-22.45 438.35-21.65L438.35-21.65Q438.35-20.85 440.38-13.8 442.4-6.75 443.15-4.2L443.15-4.2 443.6-4.2Q445.35-8.4 447.68-14.6 450-20.8 450-21.6L450-21.6Q450-22.4 449.4-22.73 448.8-23.05 447.35-23.05L447.35-23.05 445.35-23.05 445.25-23.25 445.5-25.15Q446.05-25.1 447.88-25 449.7-24.9 451.4-24.9L451.4-24.9Q452.95-24.9 454.25-24.95 455.55-25 456-25L456-25 455.65-22.95Q454.45-22.9 453.98-22.53 453.5-22.15 453.05-21L453.05-21 444.6-0.2 440.9 0.65ZM459.15 0.4L459.4-1.7Q461.25-1.9 461.9-2.6 462.55-3.3 462.55-5L462.55-5 462.6-20.85Q462.6-22.1 462.3-22.53 462-22.95 461.1-22.95L461.1-22.95 459.75-22.9 459.65-23.1 459.95-25Q460.55-25 462.3-24.95 464.05-24.9 466.1-24.9L466.1-24.9Q474.45-24.9 478.45-25.35L478.45-25.35 478.6-25.1Q478.5-24.55 478.15-22.6 477.8-20.65 477.65-18.4L477.65-18.4 475.25-18.2Q475.25-18.4 475.3-18.88 475.35-19.35 475.35-19.85L475.35-19.85Q475.35-21.15 474.97-21.68 474.6-22.2 473.43-22.38 472.25-22.55 469.35-22.55L469.35-22.55Q468-22.55 467.5-22.48 467-22.4 466.85-22.13 466.7-21.85 466.65-21.1L466.65-21.1 466.35-14 470.45-13.95Q471.35-13.95 473.1-14.13 474.85-14.3 475.4-14.35L475.4-14.35 475.6-14.1 475-11.5Q474.45-11.5 472.82-11.55 471.2-11.6 469.4-11.6L469.4-11.6Q468-11.6 466.25-11.35L466.25-11.35Q466.1-7.55 466.1-4.5L466.1-4.5Q466.1-3.35 466.27-2.9 466.45-2.45 467.07-2.3 467.7-2.15 469.15-2.15L469.15-2.15Q472.4-2.15 473.8-2.45 475.2-2.75 475.77-3.68 476.35-4.6 476.7-6.85L476.7-6.85 478.9-7.05 479.1-6.8Q478.95-6.25 478.57-4.23 478.2-2.2 478 0L478 0 477.7 0.25Q476.35 0.2 472.1 0.1 467.85 0 465.2 0L465.2 0Q463.15 0 461.4 0.18 459.65 0.35 459.15 0.4L459.15 0.4ZM500.34 0Q498.79 0 496.99 0.25 495.19 0.5 494.64 0.6L494.64 0.6 494.94-1.7Q497.24-2.15 498.04-3.03 498.84-3.9 498.84-6L498.84-6 498.89-27Q498.89-28.6 498.52-29.15 498.14-29.7 497.04-29.7L497.04-29.7Q496.54-29.7 496.04-29.65 495.54-29.6 495.34-29.6L495.34-29.6 495.24-29.8 495.59-32Q496.19-31.95 497.84-31.9 499.49-31.85 501.14-31.85L501.14-31.85Q502.84-31.85 504.62-31.93 506.39-32 507.04-32.05L507.04-32.05Q511.79-32.05 514.34-30.08 516.89-28.1 516.89-24.45L516.89-24.45Q516.89-21.95 515.37-19.95 513.84-17.95 511.09-16.75L511.09-16.75Q514.74-15.95 516.79-13.95 518.84-11.95 518.84-9.15L518.84-9.15Q518.84-6.6 517.22-4.38 515.59-2.15 512.89-0.83 510.19 0.5 507.09 0.5L507.09 0.5Q505.74 0.5 503.99 0.25L503.99 0.25Q501.14 0 500.34 0L500.34 0ZM502.69-17.55Q503.44-17.5 505.22-17.35 506.99-17.2 508.14-17.15L508.14-17.15Q508.14-17 509.44-17.68 510.74-18.35 511.79-19.78 512.84-21.2 512.84-23.6L512.84-23.6Q512.84-26.8 510.69-28.35 508.54-29.9 504.04-29.9L504.04-29.9Q503.54-29.9 503.37-29.68 503.19-29.45 503.14-28.75L503.14-28.75Q502.84-23.95 502.69-17.55L502.69-17.55ZM502.59-14.9L502.39-5.55Q502.39-3.65 503.69-2.85 504.99-2.05 508.09-2.05L508.09-2.05Q511.09-2.05 512.82-3.73 514.54-5.4 514.54-8.25L514.54-8.25Q514.54-10.95 512.84-12.68 511.14-14.4 507.79-15L507.79-15 502.59-14.9ZM535.14 0.45Q531.74 0.45 529.12-1.05 526.49-2.55 525.07-5.3 523.64-8.05 523.64-11.65L523.64-11.65Q523.64-15.55 525.42-18.68 527.19-21.8 530.27-23.58 533.34-25.35 537.14-25.35L537.14-25.35Q540.59-25.35 543.24-23.85 545.89-22.35 547.34-19.63 548.79-16.9 548.79-13.3L548.79-13.3Q548.79-9.4 547.02-6.28 545.24-3.15 542.12-1.35 538.99 0.45 535.14 0.45L535.14 0.45ZM536.34-1.95Q539.99-1.95 542.24-4.58 544.49-7.2 544.49-11.55L544.49-11.55Q544.49-14.85 543.42-17.35 542.34-19.85 540.37-21.2 538.39-22.55 535.79-22.55L535.79-22.55Q532.24-22.55 530.07-19.95 527.89-17.35 527.89-13L527.89-13Q527.89-9.7 528.94-7.2 529.99-4.7 531.92-3.33 533.84-1.95 536.34-1.95L536.34-1.95ZM553.89 0.4L554.19-1.7Q555.79-1.95 556.36-2.63 556.94-3.3 556.94-5L556.94-5 556.99-20.85Q556.99-22.1 556.69-22.53 556.39-22.95 555.49-22.95L555.49-22.95 554.14-22.9 553.99-23.1 554.29-25Q554.54-25 555.79-24.95 557.04-24.9 559.14-24.9L559.14-24.9Q560.24-24.9 561.86-25.05 563.49-25.2 563.99-25.25L563.99-25.25 563.79-23.15Q562.44-23 561.89-22.68 561.34-22.35 561.24-21.85 561.14-21.35 560.99-19.8L560.99-19.8Q560.49-13.1 560.49-4.95L560.49-4.95Q560.49-3.7 560.71-3.13 560.94-2.55 561.61-2.35 562.29-2.15 563.74-2.15L563.74-2.15Q566.14-2.15 567.26-2.55 568.39-2.95 568.96-4.13 569.54-5.3 569.99-7.85L569.99-7.85 572.19-8.1 572.34-7.8Q572.24-7.15 571.86-4.83 571.49-2.5 571.19 0.05L571.19 0.05 570.94 0.35Q569.79 0.3 566.06 0.15 562.34 0 559.79 0L559.79 0Q557.79 0 556.06 0.18 554.34 0.35 553.89 0.4L553.89 0.4ZM585.49 0.45Q584.84 0.35 582.86 0.18 580.89 0 579.54 0L579.54 0Q578.24 0 576.69 0.18 575.14 0.35 574.69 0.45L574.69 0.45 574.94-1.65Q576.74-1.95 577.39-2.65 578.04-3.35 578.04-4.95L578.04-4.95 578.09-20.85Q578.09-22.1 577.79-22.53 577.49-22.95 576.64-22.95L576.64-22.95Q576.19-22.95 575.79-22.9 575.39-22.85 575.24-22.85L575.24-22.85 575.14-23.1 575.44-25Q575.94-25 577.26-24.95 578.59-24.9 579.94-24.9L579.94-24.9Q581.74-24.9 583.64-24.98 585.54-25.05 586.24-25.05L586.24-25.05Q590.24-25.05 593.29-23.6 596.34-22.15 598.01-19.53 599.69-16.9 599.69-13.4L599.69-13.4Q599.69-9.5 597.81-6.35 595.94-3.2 592.69-1.38 589.44 0.45 585.49 0.45L585.49 0.45ZM583.59-22.7Q582.79-22.7 582.51-22.53 582.24-22.35 582.19-21.8L582.19-21.8Q581.59-7.75 581.59-5.3L581.59-5.3Q581.59-3.95 581.99-3.23 582.39-2.5 583.39-2.23 584.39-1.95 586.34-1.95L586.34-1.95Q590.54-1.95 592.91-4.7 595.29-7.45 595.29-12.4L595.29-12.4Q595.29-17.45 592.29-20.08 589.29-22.7 583.59-22.7L583.59-22.7ZM604.78 0.4L605.08-1.7Q606.68-1.95 607.26-2.63 607.83-3.3 607.83-5L607.83-5 607.88-20.85Q607.88-22.1 607.58-22.53 607.28-22.95 606.38-22.95L606.38-22.95 605.03-22.9 604.88-23.1 605.18-25Q605.43-25 606.68-24.95 607.93-24.9 610.03-24.9L610.03-24.9Q611.13-24.9 612.76-25.05 614.38-25.2 614.88-25.25L614.88-25.25 614.68-23.15Q613.33-23 612.78-22.68 612.23-22.35 612.13-21.85 612.03-21.35 611.88-19.8L611.88-19.8Q611.38-13.1 611.38-4.95L611.38-4.95Q611.38-3.7 611.61-3.13 611.83-2.55 612.51-2.35 613.18-2.15 614.63-2.15L614.63-2.15Q617.03-2.15 618.16-2.55 619.28-2.95 619.86-4.13 620.43-5.3 620.88-7.85L620.88-7.85 623.08-8.1 623.23-7.8Q623.13-7.15 622.76-4.83 622.38-2.5 622.08 0.05L622.08 0.05 621.83 0.35Q620.68 0.3 616.96 0.15 613.23 0 610.68 0L610.68 0Q608.68 0 606.96 0.18 605.23 0.35 604.78 0.4L604.78 0.4ZM628.18 0.45L628.48-1.6Q629.98-1.85 630.68-2.25 631.38-2.65 631.58-3.4 631.78-4.15 631.78-5.65L631.78-5.65 631.78-7.2Q631.78-8.35 631.53-9.25 631.28-10.15 630.58-11.5L630.58-11.5 626.83-18.7Q625.88-20.5 625.38-21.23 624.88-21.95 624.08-22.4 623.28-22.85 621.78-23L621.78-23 621.68-23.2 621.98-25Q622.43-25 623.81-24.95 625.18-24.9 626.68-24.9L626.68-24.9Q628.08-24.9 630.08-25.03 632.08-25.15 632.68-25.2L632.68-25.2 632.83-24.9 632.68-23.25Q630.98-23.15 630.36-22.88 629.73-22.6 629.73-21.9L629.73-21.9Q629.73-21.25 631.51-17.6 633.28-13.95 634.03-12.5L634.03-12.5 634.28-12.5 638.58-20.2Q639.23-21.35 639.23-22.1L639.23-22.1Q639.23-23.05 636.78-23.2L636.78-23.2 636.68-23.35 636.93-25.15Q637.23-25.15 638.93-25.03 640.63-24.9 641.73-24.9L641.73-24.9Q643.03-24.9 644.13-24.95 645.23-25 645.63-25.05L645.63-25.05 645.78-24.75 645.53-23.05Q644.18-22.75 643.43-22.25 642.68-21.75 642.11-20.95 641.53-20.15 640.23-18L640.23-18 636.18-11.1Q635.63-10.05 635.48-8.8 635.33-7.55 635.33-4.3L635.33-4.3Q635.33-3 635.73-2.5 636.13-2 637.18-2L637.18-2Q637.83-2 638.41-2.05 638.98-2.1 639.18-2.1L639.18-2.1 639.28-1.95 638.88 0.15Q638.28 0.1 636.63 0.05 634.98 0 633.28 0L633.28 0Q631.98 0 630.33 0.18 628.68 0.35 628.18 0.45L628.18 0.45ZM651.13-8.1L650.58-8.5 650.08-24.15 650.43-24.65 654.03-25.4 654.48-24.85 652.43-8.4 651.13-8.1ZM651.18 0.6Q649.83 0.6 649.1-0.23 648.38-1.05 648.38-2.25L648.38-2.25Q648.38-3.55 649.23-4.45 650.08-5.35 651.48-5.35L651.48-5.35Q652.83-5.35 653.58-4.53 654.33-3.7 654.33-2.5L654.33-2.5Q654.33-1.2 653.45-0.3 652.58 0.6 651.18 0.6L651.18 0.6Z" opacity="1" transform="matrix(1,0,0,1,0,0)" fill="#ffffff" class="slogan-text-1" data-fill-palette-color="secondary" id="text-1"></path></svg></g></svg></g></svg></g></svg></g></svg></g></svg></g></svg></g><path d="M231.8 66.351L231.8 9.557 3.715 9.557 3.715 237.643 231.8 237.643 231.8 180.849 225.425 180.849 225.425 231.267 10.09 231.267 10.09 15.933 225.425 15.933 225.425 66.351Z" fill="#ffffff" stroke="transparent" data-fill-palette-color="tertiary"></path></svg></g><defs></defs></svg><rect width="395.52" height="247.2" fill="none" stroke="none" visibility="hidden"></rect></g></svg></g></svg>